<?xml version="1.0" encoding="UTF-8" standalone="no"?>
<svg xmlns="http://www.w3.org/2000/svg" xmlns:xlink="http://www.w3.org/1999/xlink" class="card" face="AD" height="3.5in" preserveAspectRatio="none" viewBox="-106 -164.5 212 329" width="2.25in"><clipPath id="QD" clipPathUnits="objectBoundingBox"><path d="M0 -0.103v1.2h0.58l-0.18 -0.5l0.18 -0.2l-0.18 -0.5z"></path></clipPath><defs><symbol id="SDA" viewBox="-600 -600 1200 1200" preserveAspectRatio="xMinYMid"><rect x="-500" y="-500" width="1000" height="1000" opacity="0"></rect><path d="M-400 0C-350 0 0 -450 0 -500C0 -450 350 0 400 0C350 0 0 450 0 500C0 450 -350 0 -400 0Z"></path></symbol><symbol id="VDA" viewBox="-500 -500 1000 1000" preserveAspectRatio="xMinYMid"><path d="M-270 460L-110 460M-200 450L0 -460L200 450M110 460L270 460M-120 130L120 130" stroke="black" stroke-width="80" stroke-linecap="square" stroke-miterlimit="1.5" fill="none"></path></symbol><rect id="XDA" width="136.8" height="253.8" x="-68.4" y="-126.9"></rect></defs><rect width="211" height="328" x="-105.5" y="-164" rx="12" ry="12" fill="white" stroke="black"></rect><use xlink:href="#XDA" width="136.8" height="253.8" stroke="black" fill="none"></use><use xlink:href="#VDA" height="32" width="32" x="-100.4" y="-152.5"></use><use xlink:href="#SDA" height="26.769" width="26.769" x="-97.784" y="-115.5" stroke="black" stroke-width="100" stroke-linejoin="round" stroke-linecap="round"></use><use xlink:href="#SDA" height="26.769" width="26.769" x="-97.784" y="-115.5" fill="#d12d36"></use><use xlink:href="#SDA" height="54" width="54" x="-27" y="-27" clip-path="url(#QD)"></use><g transform="rotate(180)"><use xlink:href="#VDA" height="32" width="32" x="-100.4" y="-152.5"></use><use xlink:href="#SDA" height="26.769" width="26.769" x="-97.784" y="-115.5" stroke="black" stroke-width="100" stroke-linejoin="round" stroke-linecap="round"></use><use xlink:href="#SDA" height="26.769" width="26.769" x="-97.784" y="-115.5" fill="#d12d36"></use><use xlink:href="#SDA" height="54" width="54" x="-27" y="-27" clip-path="url(#QD)"></use></g></svg>